<?xml version="1.0" encoding="utf-8"?>
<!-- Generator: Adobe Illustrator 16.0.0, SVG Export Plug-In . SVG Version: 6.00 Build 0)  -->
<!DOCTYPE svg PUBLIC "-//W3C//DTD SVG 1.1//EN" "http://www.w3.org/Graphics/SVG/1.1/DTD/svg11.dtd">
<svg version="1.1" id="Layer_1" xmlns="http://www.w3.org/2000/svg" xmlns:xlink="http://www.w3.org/1999/xlink" x="0px" y="0px"
	 width="258.5px" height="80px" viewBox="0 0 258.5 80" enable-background="new 0 0 258.5 80" xml:space="preserve">
<g>
	<g>
		<path fill-rule="evenodd" clip-rule="evenodd" fill="#FFFFFF" d="M76.59,40.991c0,18.789-15.229,34.021-34.018,34.021
			c-18.788,0-34.021-15.232-34.021-34.021c0-18.785,15.232-34.017,34.021-34.017C61.361,6.974,76.59,22.207,76.59,40.991z"/>
	</g>
	<g>
		<polygon fill="#0B67B1" points="46.11,46.664 49.688,44.768 47.103,44.768 43.19,46.935 43.19,44.768 41.258,44.768 
			41.258,49.643 43.19,49.643 43.19,48.172 44.757,47.356 47.399,49.643 49.898,49.643 		"/>
		<path fill="#0B67B1" d="M19.802,47.504c-0.333-0.212-0.752-0.36-1.352-0.447c0.418-0.094,0.749-0.245,0.99-0.425
			c0.239-0.21,0.362-0.422,0.362-0.628c0-0.217-0.093-0.426-0.301-0.577c-0.181-0.176-0.451-0.299-0.723-0.419
			c-0.299-0.09-0.632-0.147-0.994-0.18c-0.391-0.028-0.962-0.061-1.716-0.061h-0.028h-3.793v4.875h3.25h0.543
			c0.932,0,1.533-0.033,1.8-0.033c0.514-0.028,0.937-0.118,1.302-0.237c0.326-0.119,0.631-0.303,0.813-0.479
			c0.208-0.208,0.329-0.455,0.329-0.664C20.286,47.959,20.101,47.721,19.802,47.504z M14.171,45.578h1.116c0.303,0,0.543,0,0.754,0
			c0.477,0,0.781,0,0.903,0.037c0.331,0,0.569,0.054,0.722,0.144c0.175,0.091,0.236,0.213,0.236,0.36
			c0,0.181-0.086,0.303-0.268,0.397c-0.179,0.086-0.45,0.147-0.777,0.177c-0.125,0-0.395,0-0.816,0c-0.179,0-0.365,0-0.599,0h-1.271
			V45.578z M17.997,48.589c-0.181,0.124-0.423,0.188-0.696,0.213c-0.18,0-0.601,0.026-1.259,0.026h-0.06h-1.81v-1.324h1.564
			c0.126,0,0.213,0,0.305,0c0.718,0.028,1.173,0.028,1.415,0.091c0.275,0.028,0.446,0.126,0.602,0.216
			c0.152,0.118,0.212,0.234,0.212,0.361C18.27,48.345,18.178,48.503,17.997,48.589z"/>
		<path fill="#0B67B1" d="M25.671,44.768h-1.024l-3.733,4.875h2.077l0.788-1.11h1.894h1.93l0.837,1.11h2.108l-3.851-4.875H25.671z
			 M25.671,47.721h-1.292l1.292-1.811l1.327,1.811H25.671z"/>
		<polygon fill="#0B67B1" points="37.376,48.017 33.466,44.768 31.601,44.768 31.601,49.643 33.377,49.643 33.377,46.45 
			37.259,49.643 39.189,49.643 39.189,44.768 37.376,44.768 		"/>
	</g>
	<g>
		<path fill-rule="evenodd" clip-rule="evenodd" fill="#C32027" d="M42.586,9.589c-4.777,0-9.345,1.089-13.396,2.993h26.762
			C51.927,10.678,47.367,9.589,42.586,9.589L42.586,9.589z M57.591,47.432v-4.93H34.3l0,0H11.199c-0.03-0.482-0.03-0.999-0.03-1.511
			c0-0.483,0-0.966,0.03-1.475h62.744c0.031,0.509,0.031,0.991,0.031,1.475c0,17.354-14.06,31.403-31.388,31.403
			c-13.664,0-25.311-8.698-29.633-20.917h18.721l10.975,10.967L57.591,47.432L57.591,47.432z M24.145,15.578
			c-1.247,0.902-2.452,1.93-3.541,2.986h43.93c-1.113-1.057-2.293-2.084-3.532-2.986H24.145L24.145,15.578z M17.914,21.558
			c-0.757,0.966-1.455,1.965-2.089,2.993h21.834l2.991-2.993H17.914L17.914,21.558z M47.512,24.551h21.803
			c-0.635-1.028-1.332-2.027-2.086-2.993h-22.71L47.512,24.551L47.512,24.551z M14.192,27.547c-0.456,0.963-0.876,1.962-1.239,2.99
			h18.744l2.996-2.99H14.192L14.192,27.547z M53.502,30.537h18.686c-0.361-1.028-0.789-2.027-1.238-2.99H50.538L53.502,30.537
			L53.502,30.537z M12.071,33.523c-0.237,0.999-0.451,2.001-0.568,3h14.24l2.965-3H12.071z"/>
	</g>
</g>
<g>
	<polygon fill="#0066B2" points="84.06,72.452 81.92,72.452 81.92,56.75 84.195,56.75 87.428,66.411 87.428,56.75 89.57,56.75 
		89.57,72.452 87.383,72.452 84.083,62.505 	"/>
	<path fill="#0066B2" d="M97.42,62.008h2.212c0,0-0.052-1.925-0.696-3.05c-0.665-1.172-1.042-1.598-2.125-2.005
		c-1.125-0.43-2.903-0.188-3.781,0.868c-0.877,1.053-1.831,2.626-2.009,5.543c-0.179,2.921,0.296,5.903,1.43,7.386
		c1.128,1.482,2.128,1.8,3.048,1.68c0.923-0.122,1.861-0.612,2.428-1.785l0.105,1.793h1.636l0.043-8.608l-4.108-0.021v2.831h2.011
		c0,0-0.173,1.532-0.848,2.246c-0.679,0.715-1.696,0.949-2.634-0.262c-0.938-1.21-0.864-4.34-0.85-4.566
		c0.013-0.228,0.077-3.775,1.996-4.418C96.244,59.351,97.462,60.649,97.42,62.008z"/>
	<path fill="#0066B2" d="M157.825,62.008h2.212c0,0-0.053-1.925-0.695-3.05c-0.666-1.172-1.041-1.598-2.126-2.005
		c-1.125-0.43-2.903-0.188-3.779,0.868c-0.878,1.053-1.832,2.626-2.013,5.543c-0.176,2.921,0.3,5.903,1.432,7.386
		c1.13,1.482,2.127,1.8,3.047,1.68c0.924-0.122,1.861-0.612,2.429-1.785l0.106,1.793h1.636l0.043-8.608l-4.11-0.021v2.831h2.012
		c0,0-0.175,1.532-0.847,2.246c-0.679,0.715-1.697,0.949-2.636-0.262c-0.938-1.21-0.862-4.34-0.847-4.566
		c0.012-0.228,0.076-3.775,1.993-4.418C156.649,59.351,157.867,60.649,157.825,62.008z"/>
	<path fill="#0066B2" d="M196.516,62.008h2.212c0,0-0.052-1.925-0.695-3.05c-0.663-1.172-1.042-1.598-2.125-2.005
		c-1.126-0.43-2.904-0.188-3.78,0.868c-0.878,1.053-1.832,2.626-2.011,5.543c-0.179,2.921,0.298,5.903,1.43,7.386
		c1.129,1.482,2.128,1.8,3.048,1.68c0.923-0.122,1.862-0.612,2.429-1.785l0.106,1.793h1.636l0.043-8.608l-4.109-0.021v2.831h2.013
		c0,0-0.174,1.532-0.848,2.246c-0.678,0.715-1.694,0.949-2.635-0.262c-0.94-1.21-0.863-4.34-0.849-4.566
		c0.012-0.228,0.075-3.775,1.994-4.418C195.341,59.351,196.559,60.649,196.516,62.008z"/>
	<polygon fill="#0066B2" points="102.354,55.186 103.975,51.688 105.73,51.688 107.335,55.186 105.549,55.186 104.844,53.75 
		104.166,55.186 	"/>
	<path fill="#0066B2" d="M106.234,56.75h-2.453l-3.294,15.702h2.353l0.625-3.152l3.009,0.022l0.535,3.13h2.426L106.234,56.75z
		 M104.029,66.292l0.934-4.857l0.886,4.857H104.029z"/>
	<polygon fill="#0066B2" points="110.703,56.75 112.996,56.75 116.195,66.415 116.195,56.75 118.339,56.75 118.339,72.452 
		116.184,72.452 112.833,62.514 112.801,72.452 110.703,72.452 	"/>
	<polygon fill="#0066B2" points="125.989,62.514 125.989,56.75 123.754,56.75 123.754,72.452 125.989,72.452 125.989,65.625 
		129.102,65.625 129.102,72.452 131.362,72.452 131.362,56.75 129.112,56.75 129.112,62.514 	"/>
	<polygon fill="#0066B2" points="134.125,51.688 136.498,51.688 137.824,55.203 136.218,55.203 	"/>
	<path fill="#0066B2" d="M137.991,56.75h-2.503l-3.292,15.702h2.368l0.642-3.115h2.978l0.563,3.115h2.398L137.991,56.75z
		 M135.772,66.292l0.9-4.843l0.929,4.843H135.772z"/>
	<polygon fill="#0066B2" points="142.412,56.75 144.704,56.75 147.919,66.415 147.919,56.75 150.079,56.75 150.079,72.452 
		147.861,72.452 144.568,62.514 144.525,72.452 142.412,72.452 	"/>
	<polygon fill="#0066B2" points="210.218,56.75 212.509,56.75 215.724,66.415 215.724,56.75 217.882,56.75 217.882,72.452 
		215.666,72.452 212.376,62.514 212.329,72.452 210.218,72.452 	"/>
	<path fill="#0066B2" d="M169.871,61.811h2.158c0,0-0.003-0.854-0.091-1.356c-0.089-0.506-0.348-1.659-0.987-2.456
		c-0.644-0.804-1.5-1.182-2.314-1.233c-0.817-0.04-2.413-0.13-3.495,2.251c-0.961,2.351,0.009,4.896,0.188,5.192
		c0.18,0.292,0.536,0.967,2.412,1.666c1.872,0.7,2.633,0.883,2.365,2.547c-0.324,1.601-3.615,1.662-3.313-1.237h-2.155
		c0,0-0.077,1.943,0.602,3.264c0.684,1.313,1.942,2.084,3.528,2.001c1.584-0.076,2.699-1.205,3.096-2.232
		c0.387-1.031,0.521-2.431,0.43-3.479c-0.088-1.058-0.534-2.129-1.058-2.521c-0.526-0.396-1.255-0.833-2.458-1.232
		c-1.206-0.404-1.753-0.621-1.884-1.37c-0.137-0.761-0.115-1.854,1.361-2.002C169.748,59.581,169.964,61.655,169.871,61.811z"/>
	<polygon fill="#0066B2" points="174.701,51.688 177.066,51.688 178.373,55.156 176.754,55.156 	"/>
	<polygon fill="#0066B2" points="201.998,51.688 204.362,51.688 205.67,55.156 204.048,55.156 	"/>
	<path fill="#0066B2" d="M178.539,56.75h-2.486l-3.294,15.702h2.342l0.654-3.145h2.978l0.584,3.145h2.414L178.539,56.75z
		 M176.334,66.242l0.91-4.797l0.909,4.797H176.334z"/>
	<rect x="182.923" y="56.75" fill="#0066B2" width="2.233" height="15.702"/>
	<path fill="#0066B2" d="M204.479,56.75c-2.63,0-4.505,3.112-4.505,7.851c0,4.339,1.631,7.852,4.505,7.852
		c3.101,0,4.504-3.513,4.504-7.852C208.982,60.267,207.532,56.75,204.479,56.75z M204.513,69.412c-1.573,0-2.242-2.167-2.242-4.84
		c0-2.668,0.691-4.829,2.242-4.829c1.483,0,2.241,2.161,2.241,4.829C206.754,67.245,205.996,69.412,204.513,69.412z"/>
	<path fill="#0066B2" d="M215.479,30.112c-1.678-1.504-3.937-2.636-7.02-3.249c2.125-0.787,3.938-1.785,5.132-3.293
		c1.29-1.359,1.888-3,1.888-4.655c0-1.612-0.485-3.022-1.563-4.277c-0.954-1.251-2.25-2.239-3.803-3.13
		c-1.532-0.764-3.308-1.255-5.23-1.511c-1.9-0.155-4.876-0.271-8.917-0.271h-0.116h-19.742v36.636h16.899c1.064,0,2.006,0,2.843,0
		c4.873-0.127,7.966-0.127,9.399-0.238c2.739-0.248,4.996-0.909,6.771-1.775c1.781-1.005,3.346-2.271,4.284-3.774
		c1.067-1.645,1.673-3.286,1.673-4.916C217.977,33.519,217.136,31.767,215.479,30.112z M186.108,15.773h5.81
		c1.552,0,2.869,0,3.931,0c2.493,0,4.043,0.119,4.759,0.119c1.646,0.147,2.843,0.642,3.795,1.269
		c0.846,0.75,1.199,1.633,1.199,2.773c0,1.248-0.477,2.142-1.44,2.906c-0.941,0.729-2.359,1.114-4.043,1.251
		c-0.703,0.13-2.143,0.13-4.27,0.13c-0.837,0-1.896,0-3.094,0h-6.646V15.773z M206.058,38.431c-0.933,0.764-2.12,1.248-3.663,1.503
		c-0.975,0.134-3.103,0.253-6.546,0.253h-0.357h-9.383v-9.806h8.198c0.48,0,1.069,0,1.542,0c3.675,0,6.19,0.119,7.371,0.491
		c1.423,0.364,2.49,0.894,3.221,1.641c0.714,0.747,1.063,1.76,1.063,2.788C207.504,36.66,207.035,37.666,206.058,38.431z"/>
	<path fill="#0066B2" d="M115.878,26.022c-2.463-0.83-6.143-1.663-11.288-2.55c-5.016-0.83-8.196-1.569-9.53-2.279
		c-0.988-0.613-1.482-1.353-1.482-2.211c0-0.987,0.494-1.695,1.6-2.192c1.704-0.855,4.035-1.342,7.112-1.342
		c2.907,0,5.133,0.487,6.582,1.23c1.474,0.855,2.476,2.038,2.837,3.902l10.399-0.252c-0.119-3.285-1.829-5.849-5.149-7.807
		c-3.173-1.944-8.087-2.907-14.571-2.907c-3.911,0-7.328,0.379-10.16,1.204c-2.801,0.862-4.898,1.973-6.361,3.531
		c-1.582,1.587-2.328,3.314-2.328,5.121c0,2.813,1.6,5.114,4.771,7.061c2.22,1.453,6.124,2.553,11.76,3.527
		c4.277,0.736,7.102,1.208,8.33,1.587c1.839,0.361,3.06,0.977,3.79,1.572c0.741,0.494,0.98,1.229,0.98,2.07
		c0,1.349-0.732,2.435-2.439,3.422c-1.724,0.959-4.291,1.457-7.598,1.457c-3.191,0-5.745-0.497-7.599-1.579
		c-1.822-1.107-3.061-2.802-3.676-5.254l-10.16,0.743c0.737,4.024,2.818,6.953,6.246,9.004c3.553,2.085,8.561,3.17,15.066,3.17
		c4.415,0,8.216-0.486,11.257-1.338c2.946-0.857,5.272-2.192,6.862-3.884c1.721-1.85,2.438-3.667,2.438-5.741
		c0-2.192-0.606-4.125-1.951-5.607C120.162,28.118,118.304,26.895,115.878,26.022z"/>
	<path fill="#0066B2" d="M157.342,38.297c-1.823,1.216-3.99,1.829-6.624,1.829c-3.539,0-6.258-0.862-8.545-2.806
		c-2.149-1.947-3.198-5.099-3.198-9.629c0-4.136,1.048-7.162,3.311-9.112c2.174-1.814,5.133-2.795,8.679-2.795
		c2.51,0,4.787,0.476,6.497,1.591c1.827,1.097,3.08,2.553,3.64,4.375l9.594-1.699c-1.131-2.794-2.734-5.005-4.905-6.577
		c-3.768-2.568-8.449-3.772-14.375-3.772c-6.736,0-12.092,1.576-16.321,4.865c-4.093,3.289-6.171,7.804-6.171,13.754
		c0,5.478,2.078,9.978,6.171,13.141c4.114,3.155,9.365,4.876,15.762,4.876c5.121,0,9.333-0.968,12.781-2.907
		c3.288-1.846,5.687-4.756,7.158-8.532l-9.456-2.189C160.542,35.279,159.289,37.205,157.342,38.297z"/>
</g>
</svg>
